<svg id="Layer_1" data-name="Layer 1" xmlns="http://www.w3.org/2000/svg" width="9.86cm" height="2.8cm" viewBox="0 0 279.39 79.38"><defs><style>.cls-1{fill:#fff;}</style></defs><title>exorlive_logo</title><path class="cls-1" d="M158.26,75.08a0.43,0.43,0,0,0,.23-0.17q0.85-.84,2.69-2.35t2.68-2a3.77,3.77,0,0,1,1.6-.62c0.44,0,.66.06,0.66,0.33a0.87,0.87,0,0,1-.12.39A34.59,34.59,0,0,0,164.44,74a8.71,8.71,0,0,0-.74,2.56q0,0.62.46,0.57a7.48,7.48,0,0,0,3.06-1.79,23.27,23.27,0,0,0,3.07-2.85,0.57,0.57,0,0,1,.35-0.24,0.19,0.19,0,0,1,.23.24,4.43,4.43,0,0,1-1.34,1.95,20.08,20.08,0,0,1-3.35,2.82,7.92,7.92,0,0,1-3,1.49q-1,.11-1-1.37a14.31,14.31,0,0,1,1.29-4.88,0.8,0.8,0,0,0,.06-0.27c0-.1,0-0.14-0.12-0.13q-0.5.06-3.2,2.52t-3,3.77a1.07,1.07,0,0,1-.38.66,1.33,1.33,0,0,1-.74.32c-0.34,0-.51-0.26-0.51-0.88a12.28,12.28,0,0,1,.71-2.7q0.7-2.11,1.63-4.45a38.94,38.94,0,0,1,1.86-4.08A19.38,19.38,0,0,1,161.15,65a4.52,4.52,0,0,1,.67-0.75,0.69,0.69,0,0,1,1,0,0.69,0.69,0,0,1,.32.49,0.73,0.73,0,0,1-.21.44,22.67,22.67,0,0,0-3.3,5.81,27.29,27.29,0,0,0-1.47,4C158.17,75,158.2,75.08,158.26,75.08Z" transform="translate(0 0)"/><path class="cls-1" d="M170.09,77.85a1.48,1.48,0,0,1-1.11-.37,1.29,1.29,0,0,1-.54-1,5.76,5.76,0,0,1,.52-2,14.14,14.14,0,0,1,2.27-3.33,1.18,1.18,0,0,0,.36-0.78,0.89,0.89,0,0,1,.35-0.64,1.46,1.46,0,0,1,.83-0.36,1,1,0,0,0,.69-0.34,1.36,1.36,0,0,1,.93-0.48q0.81-.09.81,0.53a0.32,0.32,0,0,0,.15.34,2.25,2.25,0,0,1,1.46,2.31,4.94,4.94,0,0,1-.81,2.17,8.38,8.38,0,0,1-2.59,2.62A7.49,7.49,0,0,1,170.09,77.85Zm4-7.59q-0.78.09-2.3,2.17a6.43,6.43,0,0,0-1.52,3.39,0.71,0.71,0,0,0,.21.56,0.69,0.69,0,0,0,.56.16,4.39,4.39,0,0,0,2.78-1.93,5.33,5.33,0,0,0,1.4-2.9Q175.24,70.13,174.1,70.26Z" transform="translate(0 0)"/><path class="cls-1" d="M190.16,67.91a0.92,0.92,0,0,1,.37-0.69,1.49,1.49,0,0,1,.84-0.37,1,1,0,0,1,.83.29,1.51,1.51,0,0,1,.46.68q0.21,0.58,2.09.38a8.61,8.61,0,0,0,2.85-.73,0.83,0.83,0,0,1,.24-0.07c0.09,0,.14,0,0.13.08a2,2,0,0,1-1.15.94,9,9,0,0,1-3.62.85h-0.51a0.28,0.28,0,0,0-.21.21,13.62,13.62,0,0,1-3.34,4.48q-2.28,2.08-3.52,2.22a0.86,0.86,0,0,1-.82-0.43,2.29,2.29,0,0,1-.34-1.35,5.89,5.89,0,0,1,.37-2.12,0.56,0.56,0,0,0,0-.17c0-.07,0-0.1-0.09-0.1a9,9,0,0,0-1.4,1.17q-1.27,1.16-2.69,2.53a3.55,3.55,0,0,1-2,1.17,0.73,0.73,0,0,1-.69-0.33,1.62,1.62,0,0,1-.28-1,4.06,4.06,0,0,1,.32-1.48q0.32-.8,1.4-2.94t1.28-2.4a2,2,0,0,1,.6-0.48,2,2,0,0,1,.75-0.26,0.6,0.6,0,0,1,.52.16,0.65,0.65,0,0,1,.2.49,1.21,1.21,0,0,1-.46,1,10.86,10.86,0,0,0-.92.89,10,10,0,0,0-.75,1.22,13.19,13.19,0,0,0-.82,1.72,3.66,3.66,0,0,0-.28,1.12c0,0.25.09,0.36,0.27,0.34a1.6,1.6,0,0,0,.81-0.49l2-1.91q1.48-1.45,2.49-2.38a4.42,4.42,0,0,0,1.23-1.6,1.22,1.22,0,0,1,.48-0.56,1.48,1.48,0,0,1,.66-0.31,0.66,0.66,0,0,1,.5.16,0.53,0.53,0,0,1,.23.4,0.82,0.82,0,0,1-.18.48,10.84,10.84,0,0,0-1.41,2.63,7.34,7.34,0,0,0-.59,2.42c0,0.52.16,0.77,0.49,0.73a3.51,3.51,0,0,0,1.59-1,10.68,10.68,0,0,0,2-2.38,5.42,5.42,0,0,0,.93-1.93,0.29,0.29,0,0,0-.13-0.26A1.2,1.2,0,0,1,190.16,67.91Z" transform="translate(0 0)"/><path class="cls-1" d="M201.75,72.25q0,0.75.87,0.65a10.1,10.1,0,0,0,3.89-1.76,0.64,0.64,0,0,1,.27-0.11,0.15,0.15,0,0,1,.18.17q0,0.46-2.2,1.74a9.77,9.77,0,0,1-3.41,1.41,1.91,1.91,0,0,1-1.13-.23,0.91,0.91,0,0,1-.54-0.84,6.35,6.35,0,0,1,.57-1.7l1.36-3.26a0.42,0.42,0,0,0,.06-0.17s0-.07-0.15-0.06l-0.92.17-0.6.11a0.89,0.89,0,0,1-.49-0.07,0.3,0.3,0,0,1-.2-0.27,0.63,0.63,0,0,1,.25-0.42,1.84,1.84,0,0,1,.76-0.37q1.64-.38,1.79-0.44a0.52,0.52,0,0,0,.24-0.21q0.1-.15.72-1.54,0.5-1.15.69-1.55a1.93,1.93,0,0,1,.58-0.7,1.46,1.46,0,0,1,.7-0.33,0.53,0.53,0,0,1,.47.17,0.59,0.59,0,0,1,.19.41,1,1,0,0,1-.15.48q-0.53.85-1,1.8a6.31,6.31,0,0,0-.46,1c0,0.06.11,0.08,0.33,0.06L207,66q1.41-.22,2.47-0.33c0.23,0,.35,0,0.35.13a0.48,0.48,0,0,1-.21.29,8.73,8.73,0,0,1-2,.62q-1.77.44-3.76,0.87a0.89,0.89,0,0,0-.43.17,16.15,16.15,0,0,0-.87,2A8.52,8.52,0,0,0,201.75,72.25Z" transform="translate(0 0)"/><path class="cls-1" d="M209.1,73.53a1.48,1.48,0,0,1-1.11-.37,1.29,1.29,0,0,1-.54-1,5.76,5.76,0,0,1,.52-2,14.11,14.11,0,0,1,2.27-3.33,1.18,1.18,0,0,0,.36-0.78,0.89,0.89,0,0,1,.35-0.64,1.45,1.45,0,0,1,.83-0.36,1,1,0,0,0,.69-0.34,1.36,1.36,0,0,1,.93-0.48q0.81-.09.81,0.53a0.31,0.31,0,0,0,.15.34,2.25,2.25,0,0,1,1.46,2.31,4.94,4.94,0,0,1-.81,2.17,8.37,8.37,0,0,1-2.59,2.62A7.48,7.48,0,0,1,209.1,73.53Zm4-7.59q-0.78.09-2.3,2.17a6.44,6.44,0,0,0-1.52,3.39,0.71,0.71,0,0,0,.21.56,0.69,0.69,0,0,0,.56.16,4.39,4.39,0,0,0,2.78-1.93,5.34,5.34,0,0,0,1.4-2.9Q214.26,65.81,213.11,65.94Z" transform="translate(0 0)"/><path class="cls-1" d="M232.31,62.32h0a0.62,0.62,0,0,1,.49.17,0.71,0.71,0,0,1,.22.56,1.39,1.39,0,0,1-.15.59l-1.32,3a8.66,8.66,0,0,0-.58,1.5,0.14,0.14,0,0,0,.18.17,1.1,1.1,0,0,0,.5-0.35q5.45-5.35,5.9-5.71a1.64,1.64,0,0,1,.75-0.39,0.73,0.73,0,0,1,.59.23,0.77,0.77,0,0,1,.27.58,1.12,1.12,0,0,1-.6.73,4.67,4.67,0,0,0-1.21,2.15,8.82,8.82,0,0,0-.62,2.73,0.76,0.76,0,0,0,.93.91q1.76-.19,5.56-4.46a0.64,0.64,0,0,1,.33-0.2,0.17,0.17,0,0,1,.21.2,6,6,0,0,1-1.55,2.17,14.69,14.69,0,0,1-2.89,2.58,5.71,5.71,0,0,1-2.31,1,1.6,1.6,0,0,1-1.36-.42,2,2,0,0,1-.52-1.51,9.45,9.45,0,0,1,.68-3,0.6,0.6,0,0,0,0-.15c0-.06,0-0.08-0.06-0.08a0.87,0.87,0,0,0-.33.24q-4.05,4.1-4.89,4.81a3,3,0,0,1-1.21.76c-0.32,0-.48-0.22-0.48-0.78a14.8,14.8,0,0,1,1.41-4.41,1.26,1.26,0,0,0,.11-0.4,0.14,0.14,0,0,0-.16-0.17,4.11,4.11,0,0,0-1.38,1.11q-1.07,1.08-3.74,4-0.77.83-1.05,1.07a1,1,0,0,1-.54.27,0.55,0.55,0,0,1-.51-0.26,1.38,1.38,0,0,1-.22-0.85,5.32,5.32,0,0,1,.32-1.48q0.31-1,1.2-3.36a0.71,0.71,0,0,0,0-.19,0.08,0.08,0,0,0-.1-0.08,0.18,0.18,0,0,1-.21-0.21,4.27,4.27,0,0,1,.61-1.35,2,2,0,0,1,1-1.11,0.93,0.93,0,0,1,.67.27,0.84,0.84,0,0,1,.36.64,0.93,0.93,0,0,1-.17.49,15.47,15.47,0,0,0-1.13,2.62,21.27,21.27,0,0,0-.67,2c0,0.14,0,.21.13,0.2a1.23,1.23,0,0,0,.48-0.4q2.44-2.62,4-4.11t2.14-1.89A2.08,2.08,0,0,1,232.31,62.32Z" transform="translate(0 0)"/><path class="cls-1" d="M243.29,69.75a1.48,1.48,0,0,1-1.11-.37,1.29,1.29,0,0,1-.54-1,5.76,5.76,0,0,1,.52-2A14.14,14.14,0,0,1,244.44,63a1.18,1.18,0,0,0,.37-0.78,0.89,0.89,0,0,1,.35-0.65,1.46,1.46,0,0,1,.83-0.37,1,1,0,0,0,.69-0.34,1.36,1.36,0,0,1,.93-0.48c0.54-.06.81,0.12,0.81,0.53a0.32,0.32,0,0,0,.15.34A2.25,2.25,0,0,1,250,63.56a4.94,4.94,0,0,1-.81,2.17,8.38,8.38,0,0,1-2.59,2.62A7.49,7.49,0,0,1,243.29,69.75Zm4-7.59q-0.78.09-2.3,2.17a6.43,6.43,0,0,0-1.52,3.39,0.71,0.71,0,0,0,.21.56,0.69,0.69,0,0,0,.56.16A4.39,4.39,0,0,0,247,66.49a5.33,5.33,0,0,0,1.4-2.9Q248.45,62,247.31,62.15Z" transform="translate(0 0)"/><path class="cls-1" d="M258.16,60.6a1.2,1.2,0,0,1,.46-0.78,1.54,1.54,0,0,1,.85-0.48,0.78,0.78,0,0,1,.73.32,1.19,1.19,0,0,1,.29.76q0,0.69,2.13.45a11.51,11.51,0,0,0,1.6-.29,4.28,4.28,0,0,0,1.09-.39,0.55,0.55,0,0,1,.21-0.08,0.1,0.1,0,0,1,.13.12,2,2,0,0,1-1.1.88,7.26,7.26,0,0,1-2.69.77,7.11,7.11,0,0,1-1,.06h-0.51a0.41,0.41,0,0,0-.3.25,16.5,16.5,0,0,1-3.6,4.23,8.31,8.31,0,0,1-4.22,2.29,0.94,0.94,0,0,1-.77-0.29,1.28,1.28,0,0,1-.35-1,11.54,11.54,0,0,1,1.3-4.07,0.84,0.84,0,0,0,.08-0.31,0.33,0.33,0,0,0-.07-0.22,0.21,0.21,0,0,1-.16-0.22,3,3,0,0,1,.68-1.48,2.09,2.09,0,0,1,1.34-1,0.52,0.52,0,0,1,.52.35,2,2,0,0,1,.2.92,2.8,2.8,0,0,1-.52,1.22,11.26,11.26,0,0,0-1.15,2.27,5.84,5.84,0,0,0-.45,1.72c0,0.42.15,0.61,0.46,0.58a4.86,4.86,0,0,0,2.2-1.33,14.72,14.72,0,0,0,2.31-2.49,4.77,4.77,0,0,0,.89-1.54,0.32,0.32,0,0,0-.13-0.24A1.13,1.13,0,0,1,258.16,60.6Z" transform="translate(0 0)"/><path class="cls-1" d="M264.21,67.41a2.14,2.14,0,0,1-1.61-.42,1.74,1.74,0,0,1-.67-1.47,6.31,6.31,0,0,1,.86-2.59,12.37,12.37,0,0,1,2.23-3,4.48,4.48,0,0,1,2.18-1.48q0.63-.07.69,0.35,0,0.21.36,0.17a1.27,1.27,0,0,1,.91.24,1,1,0,0,1,.35.81,3.38,3.38,0,0,1-1.36,2.45A5.51,5.51,0,0,1,265,63.82a1.21,1.21,0,0,1-.72-0.13,0.22,0.22,0,0,0-.12,0,0.87,0.87,0,0,0-.33.56,2.92,2.92,0,0,0-.19.89q0,1.09,1.32.95a9.23,9.23,0,0,0,3.45-1.31,22.57,22.57,0,0,0,4.15-3.21,0.6,0.6,0,0,1,.33-0.19,0.19,0.19,0,0,1,.24.22q0,0.57-1.89,2.2a17.58,17.58,0,0,1-3.77,2.56A10.38,10.38,0,0,1,264.21,67.41Zm0.42-4.78c0,0.09.13,0.12,0.39,0.09a3.79,3.79,0,0,0,2-.83,1.89,1.89,0,0,0,.89-1.34,0.74,0.74,0,0,0-.24-0.6,0.72,0.72,0,0,0-.57-0.17,2.84,2.84,0,0,0-1.53,1.33A5.16,5.16,0,0,0,264.63,62.62Z" transform="translate(0 0)"/><path class="cls-1" d="M273.16,65.49a1.17,1.17,0,0,1,.44-0.79,1.52,1.52,0,0,1,.86-0.47,0.93,0.93,0,0,1,.84.32,1.15,1.15,0,0,1,.33.77,1,1,0,0,1-.42.75,1.76,1.76,0,0,1-.94.4,0.93,0.93,0,0,1-.8-0.26A1,1,0,0,1,273.16,65.49Zm1.82-3.3a5.32,5.32,0,0,1,.4-1.62l1.13-3q0.75-1.91.86-2.15A0.94,0.94,0,0,1,277.7,55a1.11,1.11,0,0,1,.51-0.19,0.87,0.87,0,0,1,.85.4,1.43,1.43,0,0,1,.33.81,1,1,0,0,1-.47.77,6.27,6.27,0,0,0-1.23,1.84q-0.76,1.47-1.19,2.46a4,4,0,0,1-.69,1.22,1,1,0,0,1-.54.26C275.08,62.64,275,62.5,275,62.19Z" transform="translate(0 0)"/><path class="cls-1" d="M0,70.88S109.46,43.75,53,43.59c0,0,22.93,3.88-44.24,17.28,0,0,45.37-7.75,51.67-12.27C60.39,48.6,62.8,52.15,0,70.88Z" transform="translate(0 0)"/><path class="cls-1" d="M26.32,0s25.19,23.25-4,70.4c0,0,41.65-45.7,52.15-51.67,0,0-20.51,13.4-30.52-1.61C43.91,17.12,36.16,5.17,26.32,0Z" transform="translate(0 0)"/><ellipse class="cls-1" cx="54.69" cy="15.36" rx="5.81" ry="5.09"/><path class="cls-1" d="M101.6,20.93l-1.2,6.79H86.93l-0.72,4H99.29l-1.08,6H85.13L84.34,42H98.11l-1.24,6.79h-22L78.61,28a8.86,8.86,0,0,1,3.21-5.23,8.54,8.54,0,0,1,5.27-1.82H101.6Z" transform="translate(0 0)"/><path class="cls-1" d="M131.3,20.93l-9.18,13.43,4.76,14.47h-9.4L114.86,39l-6.32,9.82H99.18l10.2-14.5-4.09-13.39h9.28l2.1,8.79,5.3-8.79h9.33Z" transform="translate(0 0)"/><path class="cls-1" d="M158.16,28.76a28.3,28.3,0,0,1-.42,3.26l-1,5.68q-1.13,6.22-4,8.79c-2,1.79-5.06,2.69-9.17,2.69h-3.68c-3.33,0-5.7-.53-7.12-1.58q-2.55-1.88-2.27-6.6a27.39,27.39,0,0,1,.43-3.3l1-5.68q1.12-6.25,4-8.85T145,20.59h3.68q5,0,7.16,1.57Q158.44,24,158.16,28.76Zm-8.61,1.57a2.19,2.19,0,0,0-.79-2.19,5,5,0,0,0-2.46-.42h-1.37q-2.61,0-3.51,1.19a10.24,10.24,0,0,0-1.17,3.72l-0.83,4.49a19.77,19.77,0,0,0-.32,2.26,2.19,2.19,0,0,0,.79,2.19,5,5,0,0,0,2.46.42h1.38q2.56,0,3.51-1.19a10.17,10.17,0,0,0,1.17-3.68l0.83-4.49A20.34,20.34,0,0,0,149.56,30.33Z" transform="translate(0 0)"/><path class="cls-1" d="M186,27.11a12.71,12.71,0,0,1-.21,1.61l-0.4,2.23q-0.86,4.91-5.19,6.18a4.12,4.12,0,0,1,3.19,4.57c0,0.13,0,.32-0.07.58s-0.07.45-.07,0.58l-1.07,6h-8.4l1-5.26a4.25,4.25,0,0,0,.07-0.5V42.84a1.6,1.6,0,0,0-.63-1.61,3.51,3.51,0,0,0-1.82-.34h-3.76l-1.42,7.94h-8.25l5-27.9h11.63a22.08,22.08,0,0,1,7.09.81A4.88,4.88,0,0,1,186,27.11Zm-8.79,2.8,0-.34a1.57,1.57,0,0,0-.63-1.57,4.1,4.1,0,0,0-1.79-.27H171L169.79,34h3.8a4.06,4.06,0,0,0,2.33-.54,3,3,0,0,0,1-2.07l0.18-1C177.14,30.14,177.16,30,177.17,29.91Z" transform="translate(0 0)"/><path class="cls-1" d="M193.08,10.94c-0.71,4-5.05,28.33-5.43,30.39A6.9,6.9,0,0,0,189,47.08a5.68,5.68,0,0,0,4.44,2.09H210l1.3-7.11h-15.1l5.54-31.13h-8.61Z" transform="translate(0 0)"/><polygon class="cls-1" points="212.96 49.17 220.2 49.17 225.22 21.42 217.98 21.42 212.96 49.17"/><polygon class="cls-1" points="230.83 49.17 242.21 49.17 255.37 21.42 247.83 21.42 237.42 44.53 235.72 21.42 228 21.42 230.83 49.17"/><path class="cls-1" d="M251.78,49.17h21.58l1-5.66H260l1.1-6h13.7l0.87-4.82h-13.7l1-5.58h14.09l1-5.66H263.68c-5.51,0-7.24,2.24-7.8,5.12S251.78,49.17,251.78,49.17Z" transform="translate(0 0)"/></svg>