<svg id="Vrstva_1" data-name="Vrstva 1" xmlns="http://www.w3.org/2000/svg" width="1cm" height="0.93cm" viewBox="0 0 28.35 26.22"><defs><style>.cls-1{fill:#fff;}</style></defs><title>02-message</title><path class="cls-1" d="M1.65,26.23A0.9,0.9,0,0,1,1.18,26a0.78,0.78,0,0,1-.12-0.71L3.9,19.62A10.49,10.49,0,0,1,0,11.71C0,5.33,6.38,0,14.18,0s14.17,5.2,14.17,11.69S22,23.4,14.18,23.4a15.79,15.79,0,0,1-4.72-.71L1.89,26.23H1.65Zm12.52-25c-7.21,0-13,4.72-13,10.51a9.59,9.59,0,0,0,3.9,7.44,0.53,0.53,0,0,1,.12.71L3,24.46l6.26-3a0.22,0.22,0,0,1,.35,0,14.48,14.48,0,0,0,4.61.71c7.21,0,13-4.72,13-10.51S21.38,1.19,14.18,1.19Zm-7.09,13a2.36,2.36,0,1,1,2.36-2.36A2.37,2.37,0,0,1,7.09,14.19Zm0-3.54a1.12,1.12,0,0,0-1.18,1.18A1.12,1.12,0,0,0,7.09,13a1.12,1.12,0,0,0,1.18-1.18A1.12,1.12,0,0,0,7.09,10.64Zm7.09,3.54a2.36,2.36,0,1,1,2.36-2.36A2.37,2.37,0,0,1,14.18,14.19Zm0-3.54A1.12,1.12,0,0,0,13,11.82a1.18,1.18,0,0,0,2.36,0A1.12,1.12,0,0,0,14.18,10.64Zm7.09,3.54a2.36,2.36,0,1,1,2.36-2.36A2.37,2.37,0,0,1,21.26,14.19Zm0-3.54a1.12,1.12,0,0,0-1.18,1.18,1.18,1.18,0,0,0,2.36,0A1.12,1.12,0,0,0,21.26,10.64Z" transform="translate(0 -0.01)"/></svg>